<?xml version="1.0" standalone="no"?><!DOCTYPE svg PUBLIC "-//W3C//DTD SVG 1.1//EN" "http://www.w3.org/Graphics/SVG/1.1/DTD/svg11.dtd"><svg t="1739084233235" class="icon" viewBox="0 0 1024 1024" version="1.1" xmlns="http://www.w3.org/2000/svg" p-id="1119" xmlns:xlink="http://www.w3.org/1999/xlink" width="200" height="200"><path d="M0 0h1024v1024H0z" fill="#D8D8D8" fill-opacity="0" p-id="1120"></path><path d="M674.909091 325.818182c-167.098182 0-302.545455 135.447273-302.545455 302.545454s135.447273 302.545455 302.545455 302.545455 302.545455-135.447273 302.545454-302.545455-135.447273-302.545455-302.545454-302.545454z m0 93.090909a209.454545 209.454545 0 1 1 0 418.909091 209.454545 209.454545 0 0 1 0-418.909091z" fill="#000000" p-id="1121"></path><path d="M674.909091 478.417455a34.909091 34.909091 0 0 1 34.746182 31.534545l0.162909 3.374545-0.023273 92.136728 98.722909 42.845091a34.909091 34.909091 0 0 1 19.316364 42.775272l-1.186909 3.141819a34.909091 34.909091 0 0 1-42.775273 19.316363l-3.141818-1.186909-140.730182-61.090909v-137.937455a34.909091 34.909091 0 0 1 34.909091-34.90909z" fill="#000000" p-id="1122"></path><path d="M302.545455 768a46.545455 46.545455 0 1 1 0 93.090909H139.636364a46.545455 46.545455 0 1 1 0-93.090909h162.909091z m-23.272728-302.545455a46.545455 46.545455 0 1 1 0 93.09091H139.636364a46.545455 46.545455 0 1 1 0-93.09091h139.636363zM791.272727 162.909091a46.545455 46.545455 0 1 1 0 93.090909H139.636364a46.545455 46.545455 0 1 1 0-93.090909h651.636363z" fill="#000000" p-id="1123"></path></svg>