<?xml version="1.0" standalone="no"?><!DOCTYPE svg PUBLIC "-//W3C//DTD SVG 1.1//EN" "http://www.w3.org/Graphics/SVG/1.1/DTD/svg11.dtd"><svg t="1739084281269" class="icon" viewBox="0 0 1224 1024" version="1.1" xmlns="http://www.w3.org/2000/svg" p-id="1276" xmlns:xlink="http://www.w3.org/1999/xlink" width="239.0625" height="200"><path d="M714.910527 728.368201H612.082075a49.578004 49.578004 0 0 0-46.517633 33.052002l-112.009563 163.42379-135.880455-164.647938a48.965929 48.965929 0 0 0-45.905558-31.827854h-55.698745a122.414824 122.414824 0 0 1-117.518231-122.414824V219.734608a122.414824 122.414824 0 0 1 117.518231-122.414823h739.385535a122.414824 122.414824 0 0 1 118.130305 122.414823v82.630006a48.965929 48.965929 0 1 0 97.931858 0V219.734608A217.898386 217.898386 0 0 0 955.455656 0H216.070121A217.898386 217.898386 0 0 0 0.007957 219.734608v387.442917a217.898386 217.898386 0 0 0 216.062164 219.734609H244.837604l136.492529 164.647938v3.672444a98.543933 98.543933 0 0 0 69.776449 28.767484 99.768081 99.768081 0 0 0 69.77645-28.767484l5.508667-6.732815 112.009563-161.587567h73.448895a49.578004 49.578004 0 0 0 0-98.543933z" fill="#515151" p-id="1277"></path><path d="M1175.190264 568.004782h-104.0526V464.564256a49.578004 49.578004 0 1 0-98.543933 0v103.440526H869.153205a49.578004 49.578004 0 0 0 0 98.543933h103.440526v103.440526a49.578004 49.578004 0 0 0 98.543933 0v-103.440526h104.0526a49.578004 49.578004 0 0 0 0-98.543933z" fill="#515151" p-id="1278"></path><path d="M346.441908 397.848177m-65.491931 0a65.491931 65.491931 0 1 0 130.983862 0 65.491931 65.491931 0 1 0-130.983862 0Z" p-id="1279" fill="#515151"></path><path d="M576.581776 397.848177m-65.49193 0a65.491931 65.491931 0 1 0 130.983861 0 65.491931 65.491931 0 1 0-130.983861 0Z" p-id="1280" fill="#515151"></path><path d="M810.39409 397.848177m-65.491931 0a65.491931 65.491931 0 1 0 130.983861 0 65.491931 65.491931 0 1 0-130.983861 0Z" p-id="1281" fill="#515151"></path></svg>